<svg width="36" height="9" viewBox="0 0 36 9" fill="none" xmlns="http://www.w3.org/2000/svg">
<path d="M0.68 8V1H3.49C4.21667 1 4.77 1.17 5.15 1.51C5.53667 1.84333 5.73 2.27333 5.73 2.8C5.73 3.24 5.61 3.59333 5.37 3.86C5.13667 4.12 4.85 4.29667 4.51 4.39C4.91 4.47 5.24 4.67 5.5 4.99C5.76 5.30333 5.89 5.67 5.89 6.09C5.89 6.64333 5.69 7.1 5.29 7.46C4.89 7.82 4.32333 8 3.59 8H0.68ZM1.96 3.94H3.3C3.66 3.94 3.93667 3.85667 4.13 3.69C4.32333 3.52333 4.42 3.28667 4.42 2.98C4.42 2.68667 4.32333 2.45667 4.13 2.29C3.94333 2.11667 3.66 2.03 3.28 2.03H1.96V3.94ZM1.96 6.96H3.39C3.77 6.96 4.06333 6.87333 4.27 6.7C4.48333 6.52 4.59 6.27 4.59 5.95C4.59 5.62333 4.48 5.36667 4.26 5.18C4.04 4.99333 3.74333 4.9 3.37 4.9H1.96V6.96ZM6.98859 8V1H8.26859V7H11.3686V8H6.98859ZM15.0316 8.12C14.325 8.12 13.7183 7.97 13.2116 7.67C12.705 7.36333 12.315 6.94 12.0416 6.4C11.7683 5.85333 11.6316 5.22333 11.6316 4.51C11.6316 3.79667 11.7683 3.16667 12.0416 2.62C12.315 2.07333 12.705 1.64667 13.2116 1.34C13.7183 1.03333 14.325 0.88 15.0316 0.88C15.8716 0.88 16.5583 1.09 17.0916 1.51C17.6316 1.92333 17.9683 2.50667 18.1016 3.26H16.6916C16.605 2.88 16.4183 2.58333 16.1316 2.37C15.8516 2.15 15.4783 2.04 15.0116 2.04C14.365 2.04 13.8583 2.26 13.4916 2.7C13.125 3.14 12.9416 3.74333 12.9416 4.51C12.9416 5.27667 13.125 5.88 13.4916 6.32C13.8583 6.75333 14.365 6.97 15.0116 6.97C15.4783 6.97 15.8516 6.87 16.1316 6.67C16.4183 6.46333 16.605 6.18 16.6916 5.82H18.1016C17.9683 6.54 17.6316 7.10333 17.0916 7.51C16.5583 7.91667 15.8716 8.12 15.0316 8.12ZM19.2347 8V1H20.5147V3.83L23.1047 1H24.6847L22.1047 3.78L24.7547 8H23.1847L21.1847 4.76L20.5147 5.49V8H19.2347ZM26.3912 8V2.46L25.2412 2.73V1.75L26.9312 1H27.7212V8H26.3912ZM31.9484 8.12C31.3018 8.12 30.7484 7.97 30.2884 7.67C29.8284 7.36333 29.4718 6.94 29.2184 6.4C28.9718 5.85333 28.8484 5.22 28.8484 4.5C28.8484 3.78667 28.9718 3.15667 29.2184 2.61C29.4718 2.06333 29.8284 1.64 30.2884 1.34C30.7484 1.03333 31.3018 0.88 31.9484 0.88C32.5951 0.88 33.1484 1.03333 33.6084 1.34C34.0684 1.64 34.4218 2.06333 34.6684 2.61C34.9218 3.15667 35.0484 3.78667 35.0484 4.5C35.0484 5.22 34.9218 5.85333 34.6684 6.4C34.4218 6.94 34.0684 7.36333 33.6084 7.67C33.1484 7.97 32.5951 8.12 31.9484 8.12ZM31.9484 6.97C32.4751 6.97 32.9051 6.75 33.2384 6.31C33.5718 5.87 33.7384 5.26667 33.7384 4.5C33.7384 3.73333 33.5718 3.13 33.2384 2.69C32.9051 2.25 32.4751 2.03 31.9484 2.03C31.4151 2.03 30.9818 2.25 30.6484 2.69C30.3218 3.13 30.1584 3.73333 30.1584 4.5C30.1584 5.26667 30.3218 5.87 30.6484 6.31C30.9818 6.75 31.4151 6.97 31.9484 6.97Z" fill="white"/>
</svg>
