<svg width="50" height="50" viewBox="0 0 50 50" fill="none" xmlns="http://www.w3.org/2000/svg">
<rect y="2" width="48" height="48" rx="16" fill="#4CD080"/>
<path d="M20 30L28 22" stroke="white" stroke-width="2" stroke-linecap="round" stroke-linejoin="round"/>
<path d="M20.6667 23.3333C21.0349 23.3333 21.3333 23.0349 21.3333 22.6667C21.3333 22.2985 21.0349 22 20.6667 22C20.2985 22 20 22.2985 20 22.6667C20 23.0349 20.2985 23.3333 20.6667 23.3333Z" fill="white" stroke="white" stroke-width="2" stroke-linecap="round" stroke-linejoin="round"/>
<path d="M27.3332 29.9998C27.7014 29.9998 27.9998 29.7014 27.9998 29.3332C27.9998 28.965 27.7014 28.6665 27.3332 28.6665C26.965 28.6665 26.6665 28.965 26.6665 29.3332C26.6665 29.7014 26.965 29.9998 27.3332 29.9998Z" fill="white" stroke="white" stroke-width="2" stroke-linecap="round" stroke-linejoin="round"/>
<path d="M14.6665 19.5999C14.6665 18.8219 14.9756 18.0758 15.5257 17.5257C16.0758 16.9756 16.8219 16.6665 17.5999 16.6665H18.9332C19.7077 16.6661 20.4507 16.3594 20.9999 15.8132L21.9332 14.8799C22.2058 14.6057 22.5299 14.3882 22.8869 14.2398C23.2438 14.0913 23.6266 14.0149 24.0132 14.0149C24.3998 14.0149 24.7826 14.0913 25.1396 14.2398C25.4965 14.3882 25.8206 14.6057 26.0932 14.8799L27.0265 15.8132C27.5758 16.3594 28.3187 16.6661 29.0932 16.6665H30.4265C31.2045 16.6665 31.9506 16.9756 32.5007 17.5257C33.0508 18.0758 33.3599 18.8219 33.3599 19.5999V20.9332C33.3603 21.7077 33.6671 22.4507 34.2132 22.9999L35.1465 23.9332C35.4207 24.2058 35.6382 24.5299 35.7867 24.8869C35.9351 25.2438 36.0115 25.6266 36.0115 26.0132C36.0115 26.3998 35.9351 26.7826 35.7867 27.1396C35.6382 27.4965 35.4207 27.8206 35.1465 28.0932L34.2132 29.0265C33.6671 29.5758 33.3603 30.3187 33.3599 31.0932V32.4265C33.3599 33.2045 33.0508 33.9506 32.5007 34.5007C31.9506 35.0508 31.2045 35.3599 30.4265 35.3599H29.0932C28.3187 35.3603 27.5758 35.6671 27.0265 36.2132L26.0932 37.1465C25.8206 37.4207 25.4965 37.6382 25.1396 37.7867C24.7826 37.9351 24.3998 38.0115 24.0132 38.0115C23.6266 38.0115 23.2438 37.9351 22.8869 37.7867C22.5299 37.6382 22.2058 37.4207 21.9332 37.1465L20.9999 36.2132C20.4507 35.6671 19.7077 35.3603 18.9332 35.3599H17.5999C16.8219 35.3599 16.0758 35.0508 15.5257 34.5007C14.9756 33.9506 14.6665 33.2045 14.6665 32.4265V31.0932C14.6661 30.3187 14.3594 29.5758 13.8132 29.0265L12.8799 28.0932C12.6057 27.8206 12.3882 27.4965 12.2398 27.1396C12.0913 26.7826 12.0149 26.3998 12.0149 26.0132C12.0149 25.6266 12.0913 25.2438 12.2398 24.8869C12.3882 24.5299 12.6057 24.2058 12.8799 23.9332L13.8132 22.9999C14.3594 22.4507 14.6661 21.7077 14.6665 20.9332V19.5999" stroke="white" stroke-width="2" stroke-linecap="round" stroke-linejoin="round"/>
<circle cx="44" cy="6" r="5" fill="#FFAE58" stroke="#EDFAF2" stroke-width="2"/>
</svg>
