<svg width="32" height="32" viewBox="0 0 32 32" fill="none" xmlns="http://www.w3.org/2000/svg">
<path d="M12 20L20 12" stroke="white" stroke-width="2" stroke-linecap="round" stroke-linejoin="round"/>
<path d="M12.6667 13.3333C13.0349 13.3333 13.3333 13.0349 13.3333 12.6667C13.3333 12.2985 13.0349 12 12.6667 12C12.2985 12 12 12.2985 12 12.6667C12 13.0349 12.2985 13.3333 12.6667 13.3333Z" fill="white" stroke="white" stroke-width="2" stroke-linecap="round" stroke-linejoin="round"/>
<path d="M19.3332 19.9998C19.7014 19.9998 19.9998 19.7014 19.9998 19.3332C19.9998 18.965 19.7014 18.6665 19.3332 18.6665C18.965 18.6665 18.6665 18.965 18.6665 19.3332C18.6665 19.7014 18.965 19.9998 19.3332 19.9998Z" fill="white" stroke="white" stroke-width="2" stroke-linecap="round" stroke-linejoin="round"/>
<path d="M6.66655 9.59988C6.66655 8.82191 6.9756 8.07581 7.5257 7.5257C8.07581 6.9756 8.82191 6.66655 9.59988 6.66655H10.9332C11.7077 6.66611 12.4507 6.35935 12.9999 5.81322L13.9332 4.87988C14.2058 4.60575 14.5299 4.38821 14.8869 4.23976C15.2438 4.09131 15.6266 4.01489 16.0132 4.01489C16.3998 4.01489 16.7826 4.09131 17.1396 4.23976C17.4965 4.38821 17.8206 4.60575 18.0932 4.87988L19.0265 5.81322C19.5758 6.35935 20.3187 6.66611 21.0932 6.66655H22.4265C23.2045 6.66655 23.9506 6.9756 24.5007 7.5257C25.0508 8.07581 25.3599 8.82191 25.3599 9.59988V10.9332C25.3603 11.7077 25.6671 12.4507 26.2132 12.9999L27.1465 13.9332C27.4207 14.2058 27.6382 14.5299 27.7867 14.8869C27.9351 15.2438 28.0115 15.6266 28.0115 16.0132C28.0115 16.3998 27.9351 16.7826 27.7867 17.1396C27.6382 17.4965 27.4207 17.8206 27.1465 18.0932L26.2132 19.0265C25.6671 19.5758 25.3603 20.3187 25.3599 21.0932V22.4265C25.3599 23.2045 25.0508 23.9506 24.5007 24.5007C23.9506 25.0508 23.2045 25.3599 22.4265 25.3599H21.0932C20.3187 25.3603 19.5758 25.6671 19.0265 26.2132L18.0932 27.1465C17.8206 27.4207 17.4965 27.6382 17.1396 27.7867C16.7826 27.9351 16.3998 28.0115 16.0132 28.0115C15.6266 28.0115 15.2438 27.9351 14.8869 27.7867C14.5299 27.6382 14.2058 27.4207 13.9332 27.1465L12.9999 26.2132C12.4507 25.6671 11.7077 25.3603 10.9332 25.3599H9.59988C8.82191 25.3599 8.07581 25.0508 7.5257 24.5007C6.9756 23.9506 6.66655 23.2045 6.66655 22.4265V21.0932C6.66611 20.3187 6.35935 19.5758 5.81322 19.0265L4.87988 18.0932C4.60575 17.8206 4.38821 17.4965 4.23976 17.1396C4.09131 16.7826 4.01489 16.3998 4.01489 16.0132C4.01489 15.6266 4.09131 15.2438 4.23976 14.8869C4.38821 14.5299 4.60575 14.2058 4.87988 13.9332L5.81322 12.9999C6.35935 12.4507 6.66611 11.7077 6.66655 10.9332V9.59988" stroke="white" stroke-width="2" stroke-linecap="round" stroke-linejoin="round"/>
</svg>
