<svg width="33" height="9" viewBox="0 0 33 9" fill="none" xmlns="http://www.w3.org/2000/svg">
<path d="M0.969063 8V1H2.24906L5.53906 5.93V1H6.81906V8H5.53906L2.24906 3.08V8H0.969063ZM11.4561 8.12C10.7561 8.12 10.1428 7.96667 9.61609 7.66C9.09609 7.35333 8.68609 6.93 8.38609 6.39C8.09276 5.84333 7.94609 5.21333 7.94609 4.5C7.94609 3.78667 8.09276 3.16 8.38609 2.62C8.68609 2.07333 9.09609 1.64667 9.61609 1.34C10.1428 1.03333 10.7561 0.88 11.4561 0.88C12.1494 0.88 12.7594 1.03333 13.2861 1.34C13.8128 1.64667 14.2228 2.07333 14.5161 2.62C14.8094 3.16 14.9561 3.78667 14.9561 4.5C14.9561 5.21333 14.8094 5.84333 14.5161 6.39C14.2228 6.93 13.8128 7.35333 13.2861 7.66C12.7594 7.96667 12.1494 8.12 11.4561 8.12ZM11.4561 6.97C12.1228 6.97 12.6528 6.75 13.0461 6.31C13.4461 5.87 13.6461 5.26667 13.6461 4.5C13.6461 3.73333 13.4461 3.13 13.0461 2.69C12.6528 2.25 12.1228 2.03 11.4561 2.03C10.7894 2.03 10.2561 2.25 9.85609 2.69C9.45609 3.13 9.25609 3.73333 9.25609 4.5C9.25609 5.26667 9.45609 5.87 9.85609 6.31C10.2561 6.75 10.7894 6.97 11.4561 6.97ZM17.8819 8L15.3219 1H16.6919L18.6719 6.69L20.6619 1H22.0119L19.4519 8H17.8819ZM23.6041 8V2.46L22.4541 2.73V1.75L24.1441 1H24.9341V8H23.6041ZM29.1613 8.12C28.5147 8.12 27.9613 7.97 27.5013 7.67C27.0413 7.36333 26.6847 6.94 26.4313 6.4C26.1847 5.85333 26.0613 5.22 26.0613 4.5C26.0613 3.78667 26.1847 3.15667 26.4313 2.61C26.6847 2.06333 27.0413 1.64 27.5013 1.34C27.9613 1.03333 28.5147 0.88 29.1613 0.88C29.808 0.88 30.3613 1.03333 30.8213 1.34C31.2813 1.64 31.6347 2.06333 31.8813 2.61C32.1347 3.15667 32.2613 3.78667 32.2613 4.5C32.2613 5.22 32.1347 5.85333 31.8813 6.4C31.6347 6.94 31.2813 7.36333 30.8213 7.67C30.3613 7.97 29.808 8.12 29.1613 8.12ZM29.1613 6.97C29.688 6.97 30.118 6.75 30.4513 6.31C30.7847 5.87 30.9513 5.26667 30.9513 4.5C30.9513 3.73333 30.7847 3.13 30.4513 2.69C30.118 2.25 29.688 2.03 29.1613 2.03C28.628 2.03 28.1947 2.25 27.8613 2.69C27.5347 3.13 27.3713 3.73333 27.3713 4.5C27.3713 5.26667 27.5347 5.87 27.8613 6.31C28.1947 6.75 28.628 6.97 29.1613 6.97Z" fill="white"/>
</svg>
