<svg width="361" height="118" viewBox="0 0 361 118" fill="none" xmlns="http://www.w3.org/2000/svg">
<path d="M2.0335 0C1.5335 13 6.4335 41.9 30.0335 53.5C41.0335 58.9068 61.7941 60.055 78.5335 71C91.5335 79.5 96.8668 92.8333 97.0335 96C97.0335 99.8333 98.4335 108.7 104.034 113.5" stroke="#F78E1E" stroke-width="3"/>
<path d="M110.533 0C115.2 7.5 125.033 23.9 127.033 29.5C129.533 36.5 128.769 47.7937 128.033 50C127.233 52.4 127.033 55 123.033 60C115.472 69.4514 108.533 79.8 108.533 81" stroke="#4CD080" stroke-width="3"/>
<path d="M248.533 0C247.033 4 242.033 12.5 232.533 18C224.933 22.4 207.033 19.5 198.033 20.5C189.033 21.5 183.533 31.5 182.033 34.5C179.574 39.4181 178.689 42.5405 178.033 48C176.533 60.5 176.231 82.7503 178.533 91.5C181.033 101 181.033 117.5 181.033 117.5" stroke="#54B948" stroke-width="3"/>
<path d="M205.033 0C205.033 2.66667 207.733 9.3 216.533 12.5C226.533 14 236.033 15 237.533 15C239.033 15 244.033 16 244.033 16" stroke="#F78E1F" stroke-width="3"/>
<path d="M361.534 0.5C352.367 13.5 345.534 24 330.034 42.5C327.321 45.7379 324.034 47 321.034 48.5C315.254 51.39 303.034 51 297.034 52C291.034 53 288.914 55.9448 288.034 58C286.534 61.5 286.534 64.5 287.034 67.5C287.28 68.9796 288.1 71.3999 289.034 73C292.534 79 299.534 87 299.534 87" stroke="#26BCD7" stroke-width="2"/>
<path d="M296.033 90C296.033 90 296.593 94.2401 295.033 94.5C292.033 95 287.033 96 287.033 99" stroke="#26BCD7" stroke-width="2"/>
<path d="M302.23 57L311.23 62.1962L302.23 67.3923L302.23 57Z" fill="#F78E1E"/>
<path d="M81.2296 57L90.2296 62.1962L81.2296 67.3923L81.2296 57Z" fill="#F78E1E"/>
<path d="M253.632 50.5L258.132 53.0981L253.632 55.6962L253.632 50.5Z" fill="#FF3F3F"/>
<path d="M300.033 33L307.033 32V37L300.033 38V33Z" fill="#FF3F3F"/>
<path d="M233.033 28.8333L239.033 28V32.1667L233.033 33V28.8333Z" fill="#26BCD6"/>
<path d="M163.033 11.8333L168.033 11V15.1667L163.033 16V11.8333Z" fill="#C4C4C4"/>
<path d="M25.0334 66.8333L31.0334 66V70.1667L25.0334 71V66.8333Z" fill="#FF3F3F"/>
<circle cx="286.533" cy="21.5" r="1.5" fill="#26BCD7"/>
<circle cx="279.533" cy="73.5" r="2.5" fill="#54B948"/>
<rect x="143.033" y="4" width="4" height="4" fill="#26BCD6"/>
<circle cx="99.0334" cy="12" r="2" fill="#26BCD7"/>
<path d="M77.0335 38C76.7002 39.5 76.5335 43.1667 79.0335 44C80.5335 44.5 87.0335 45 88.0335 49.5" stroke="#FFD2A6"/>
<path d="M203.533 29.5C203.533 29.5 203.533 33.5 201.533 34C199.533 34.5 197.781 34.1066 196.033 35C194.558 35.7543 193.533 37 193.533 38" stroke="#FFD2A6"/>
</svg>
